<?xml version="1.0" standalone="no"?><!DOCTYPE svg PUBLIC "-//W3C//DTD SVG 1.1//EN" "http://www.w3.org/Graphics/SVG/1.1/DTD/svg11.dtd"><svg class="icon" width="64px" height="64.00px" viewBox="0 0 1024 1024" version="1.1" xmlns="http://www.w3.org/2000/svg"><path fill="#81d214" d="M814.99 124c19.487 0 35.357 15.482 35.982 34.817l0.025 1.182v138.273a36 36 0 0 1 28.17-14.26l0.52-0.004 32.305-0.008c19.686 0 35.685 15.794 36.008 35.405V864c0 19.683-15.797 35.677-35.405 36H112c-19.683 0-35.677-15.797-36-35.405V320c0-19.687 15.802-35.682 35.413-36l32.9 0.008a36 36 0 0 1 28.672 14.24V159.999c0.006-19.683 15.803-35.676 35.41-35.999h606.596zM876 383.007l-1.536 1.748a486.308 486.308 0 0 1-67.831 63.265l-1.51 1.155-1.971 1.494-1.074 0.807c-1.214 0.91-2.432 1.815-3.655 2.714l-1.773 1.297-2.4 1.735-1.297 0.93-1.48 1.054-1.26 0.888a482.835 482.835 0 0 1-105.041 55.995l-1.933 0.734-2.153 0.81-2.93 1.082-2.917 1.055-2.254 0.801-2.08 0.729-1.596 0.551-1.612 0.55-2.37 0.799-1.942 0.643a101.443 101.443 0 0 1-28 42.116l-0.665 0.593-0.436 0.381-1.169 1.287-1.445 1.573c-14.815 16.025-40.312 40.957-76.885 75.241l-8.735 8.17-5.52 5.146c-13.801 12.847-35.176 12.87-49.003 0.052l-5.935-5.51c-46.307-43.055-76.539-72.77-91.556-90.147l-0.469-0.545-0.59-0.691-0.624-0.643a101.542 101.542 0 0 1-20.31-30.723l-0.368-0.88-0.303-0.742-0.272-0.612-0.374-0.863-2.591-0.797-2.47-0.775-1.065-0.339-2.474-0.797a482.898 482.898 0 0 1-4.955-1.643l-1.539-0.522-1.425-0.489-2.714-0.944-2.431-0.862-1.15-0.413-1.395-0.505c-1.691-0.615-3.379-1.24-5.062-1.874l-2.716-1.033a471.972 471.972 0 0 1-7.25-2.847l-0.44-0.178a483.049 483.049 0 0 1-103.1-57.106l-2.11-1.54-2.144-1.583-2.252-1.682-1.13-0.853a482.043 482.043 0 0 1-6.29-4.836l-2.259-1.78a486.182 486.182 0 0 1-62.144-58.798l-1.62-1.843V828h728V383.007zM567.5 461c-8.903 0-17.09 3.924-22.682 10.635l-0.739 0.9c-14.37 17.15-40.794 17.148-55.163-0.006l-0.734-0.894C482.589 464.924 474.402 461 465.5 461c-16.13 0-29.236 12.945-29.496 29.012l-0.004 0.504c0.555 2.575 0.832 5.23 0.804 7.924l0.13 0.31 0.14 0.322 0.425 0.946 0.265 0.623 0.474 1.173a29.543 29.543 0 0 0 6.112 9.249l0.927 0.931a36 36 0 0 1 1.854 2.05l0.46 0.546 0.633 0.743 0.923 1.066c10.15 11.635 30.12 31.598 59.505 59.416l7.305 6.896 6.901-6.526c27.403-25.983 46.573-44.978 57.24-56.68l0.996-1.097 1.082-1.21a36 36 0 0 1 4.044-3.896c6.804-5.6 10.78-13.838 10.78-22.802 0-16.292-13.208-29.5-29.5-29.5z m211.491-265H244.984v181.773l0.545 0.464a414.477 414.477 0 0 0 3.692 3.098l1.86 1.532 1.966 1.602 1.975 1.588 0.77 0.616a413.85 413.85 0 0 0 2.022 1.598l-0.97-0.767 1.32 1.039 1.324 1.033 2.017 1.558 1.453 1.109 1 0.757 1.002 0.755 1.719 1.282 2.2 1.623 0.665 0.485c29.01 21.148 60.773 38.517 94.526 51.51l1.662 0.635c0.818 0.31 1.638 0.619 2.459 0.925l-2.26-0.85 1.326 0.501 2.81 1.043 1.686 0.613C387.035 414.81 423.253 389 465.5 389c17.717 0 34.707 4.583 49.583 12.918l0.755 0.427 0.661 0.382 0.663-0.382a101.26 101.26 0 0 1 48.508-13.329l0.899-0.012 0.931-0.004c41.127 0 76.542 24.461 92.488 59.628 33.95-13.07 65.885-30.572 95.03-51.894l1.432-1.052 1.62-1.202 1.198-0.897 1.17-0.883 1.168-0.887 1.37-1.048 1.21-0.935 0.83-0.646 1.23-0.963c0.992-0.779 1.98-1.562 2.965-2.35l1.474-1.186a414.326 414.326 0 0 0 6.907-5.703l1.405-1.193L778.991 196z" /></svg>