<?xml version="1.0" standalone="no"?><!DOCTYPE svg PUBLIC "-//W3C//DTD SVG 1.1//EN" "http://www.w3.org/Graphics/SVG/1.1/DTD/svg11.dtd"><svg class="icon" width="64px" height="64.00px" viewBox="0 0 1024 1024" version="1.1" xmlns="http://www.w3.org/2000/svg"><path fill="#81d214" d="M670.036 177.44h0.198c107.59 0 194.794 87.303 194.794 194.978 0 47.378-17.032 91.88-46.536 126.497C925.208 565.727 994.56 701.09 994.56 852c0 11.173-0.377 22.292-1.126 33.339-1.23 18.137-16.301 32.221-34.48 32.221H833.13a461.441 461.441 0 0 1-5.526 48.41C824.69 983.305 809.682 996 792.104 996H71.896c-17.578 0-32.586-12.695-35.501-30.03C32.151 940.734 30 915.006 30 889c0-167.175 89.604-315.879 224.761-387.01C195.891 451.93 160 377.723 160 297c0-148.565 120.435-269 269-269 105.617 0 197.018 60.869 241.036 149.44z m23.648 71.307A270.587 270.587 0 0 1 698 297c0 75.568-31.452 145.458-83.827 195.164 2.107 4.506 3.17 9.375 3.225 14.243 119.641 66.648 201.947 194.9 214.833 342.033h93.194c-1.21-144.087-75.772-268.233-180.294-309.536-26.06-10.298-29.675-45.702-6.232-61.054 35.315-23.126 57.009-62.401 57.009-105.432 0-61.49-44.029-112.67-102.224-123.67z" /></svg>