<?xml version="1.0" standalone="no"?><!DOCTYPE svg PUBLIC "-//W3C//DTD SVG 1.1//EN" "http://www.w3.org/Graphics/SVG/1.1/DTD/svg11.dtd"><svg class="icon" width="64px" height="64.00px" viewBox="0 0 1024 1024" version="1.1" xmlns="http://www.w3.org/2000/svg"><path fill="#81d214" d="M462.727 179.884c10.896 16.058 29.298 26.64 50.097 26.64 20.708 0 39.04-10.49 49.953-26.429a60.124 60.124 0 0 0 10.547-34.071c0-14.822-5.374-28.426-14.275-38.964-11.112-13.157-27.72-21.535-46.225-21.535-18.414 0-34.95 8.295-46.06 21.34-9 10.566-14.44 24.246-14.44 39.159a60.12 60.12 0 0 0 10.403 33.86zM123.151 745.975C109.64 757.085 101 773.921 101 792.713c0 33.329 27.172 60.501 60.5 60.501a60.074 60.074 0 0 0 29.855-7.907c18.28-10.428 30.645-30.11 30.645-52.594 0-33.327-27.172-60.499-60.5-60.499-14.535 0-27.9 5.168-38.35 13.761z m777.698 0c-10.45-8.593-23.814-13.761-38.349-13.761-33.328 0-60.5 27.172-60.5 60.499 0 22.484 12.366 42.166 30.645 52.594a60.074 60.074 0 0 0 29.855 7.907c33.328 0 60.5-27.172 60.5-60.501 0-18.792-8.64-35.627-22.15-46.738zM634.662 198.121c-20.266 47.248-67.233 80.404-121.838 80.404-54.804 0-101.914-33.398-122.058-80.921C249.54 248.443 148 385.489 148 546.25c0 39.777 6.216 78.103 17.712 114.03C236.86 662.51 294 721.03 294 792.713c0 15.294-2.6 29.989-7.384 43.665C348.666 886.221 427 916 512 916c85.001 0 163.335-29.779 225.384-79.622C732.6 822.702 730 808.007 730 792.713c0-71.682 57.14-130.203 128.288-132.433C869.784 624.353 876 586.027 876 546.25c0-160.22-100.857-296.883-241.338-348.13z m-252.597-73.596c10.294-62.894 64.986-111 130.759-111 65.966 0 120.787 48.389 130.849 111.555C819.998 181.774 948 349.196 948 546.25c0 45.758-6.902 89.92-19.708 131.467C968.127 700.585 995 743.554 995 792.713c0 73.093-59.408 132.501-132.5 132.501-31.706 0-60.838-11.179-83.662-29.804C705.061 953.422 612.465 988 512 988c-100.465 0-193.061-34.578-266.838-92.59-22.824 18.625-51.956 29.804-83.662 29.804-73.092 0-132.5-59.408-132.5-132.501 0-49.159 26.873-92.128 66.708-114.996C82.902 636.169 76 592.008 76 546.25c0-197.7 128.843-365.575 306.065-421.725zM475.5 516.5V406c0-19.882 16.118-36 36-36s36 16.118 36 36v110.5H658c19.882 0 36 16.118 36 36s-16.118 36-36 36H547.5V699c0 19.882-16.118 36-36 36s-36-16.118-36-36V588.5H366c-19.882 0-36-16.118-36-36s16.118-36 36-36h109.5z" /></svg>