<?xml version="1.0" standalone="no"?><!DOCTYPE svg PUBLIC "-//W3C//DTD SVG 1.1//EN" "http://www.w3.org/Graphics/SVG/1.1/DTD/svg11.dtd"><svg class="icon" width="64px" height="64.00px" viewBox="0 0 1024 1024" version="1.1" xmlns="http://www.w3.org/2000/svg"><path fill="#81d214" d="M548.368 659.36c1.814-0.341 3.689-0.7 6.262-1.2l3.24-0.628 3.31-0.64c5.497-1.06 9.709-1.839 13.959-2.57 11.246-1.931 21.245-3.224 31.349-3.92l0.255-0.015c28.67-1.606 55.472 6.617 79.68 24.3 23.24 16.978 47.38 47.808 73.318 92.733 19.984 34.614 20.3 70.346 2.564 103.47-15.195 28.377-43.103 53.88-80.344 75.381-37.373 21.578-80.819 25.471-125.426 14.1-38.146-9.723-75.672-30.442-105.075-56.781-1.294-1.16-34.966-30.76-45.94-40.807-27.648-25.315-51.313-49.737-75.381-78.9-29.478-35.717-57.832-76.723-85.88-125.304-27.131-46.993-47.604-90.241-63.205-132.081-12.575-33.726-21.398-64.493-29.948-101.586-0.92-3.993-11.908-54.113-15.254-67.506-23.273-92.453 3.866-178.87 78.109-221.734 36.194-20.897 73.777-31.497 107.284-29.574 37.377 2.145 68.085 19.752 86.496 51.64 27.768 48.095 43.018 85.466 45.53 113.41 1.748 19.453-1.57 37.962-8.357 54.859-3.585 8.924-8.297 17.44-12.128 22.618-4.577 8.607-11.043 16.518-22.331 28.58-1.655 1.768-7.37 7.816-7.829 8.304-3.068 3.26-5.415 5.797-7.642 8.275-18.96 21.103-26.438 36.044-24.15 51.282 8.709 35.45 24.418 73.246 47.2 113.343 22.618 39.808 47.286 72.076 73.927 96.867 12.772 9.153 26.11 9.78 56.407 4.084z m228.5-114.684c0.694 19.87-14.852 36.54-34.722 37.234-19.87 0.694-36.54-14.851-37.234-34.721-2.737-78.372-42.75-149.103-106.526-192.204-16.473-11.133-20.803-33.512-9.67-49.985 11.133-16.473 33.512-20.802 49.985-9.67 82.656 55.86 134.618 147.716 138.167 249.346z m172.716-1.469c0.694 19.87-14.851 36.54-34.721 37.234-19.87 0.694-36.541-14.851-37.235-34.721-5.127-146.819-77.283-276.76-191.73-345.298-17.057-10.215-22.604-32.324-12.39-49.381 10.216-17.058 32.324-22.605 49.382-12.39 136.033 81.464 220.739 234.007 226.694 404.556z" /></svg>