<?xml version="1.0" standalone="no"?><!DOCTYPE svg PUBLIC "-//W3C//DTD SVG 1.1//EN" "http://www.w3.org/Graphics/SVG/1.1/DTD/svg11.dtd"><svg class="icon" width="64px" height="64.00px" viewBox="0 0 1024 1024" version="1.1" xmlns="http://www.w3.org/2000/svg"><path fill="#81d214" d="M914.029 333.107c32.414 56.59 49.722 120.768 49.722 187.382 0 104.63-42.838 202.461-116.922 273.14L836.13 929.447c-2.101 26.686-31.497 41.734-54.316 28.1l-0.69-0.422-109.754-68.779c-27.7 6.386-56.206 9.644-85.119 9.644-39.928 0-79.061-6.213-116.336-18.276-18.916-6.122-29.288-26.42-23.166-45.336 6.122-18.917 26.42-29.288 45.336-23.166 30.135 9.753 61.788 14.778 94.166 14.778 27.912 0 55.292-3.734 81.641-11.021 10.58-2.926 21.364-0.811 29.794 4.896l71.331 44.704 7.075-89.829c0.777-9.87 5.465-18.494 12.423-24.475a36.252 36.252 0 0 1 4.267-4.661c62.67-57.53 98.969-138.365 98.969-225.114 0-53.975-13.984-105.83-40.199-151.596-9.882-17.252-3.907-39.25 13.345-49.131 17.253-9.882 39.25-3.908 49.132 13.345zM426.5 28C634.987 28 804 197.013 804 405.5S634.987 783 426.5 783c-34.951 0-69.295-4.76-102.318-14.04L217.54 837.874c-23.158 14.965-53.734-0.599-55.464-27.912l-0.044-0.831-5.817-140.09C88.089 599.213 49 505.45 49 405.5 49 197.013 218.013 28 426.5 28z m0 72C257.777 100 121 236.777 121 405.5c0 85.232 35.037 164.764 95.742 222.109l1.847 1.73c10.701 9.945 13.99 24.88 9.614 37.88l3.153 76 69.105-44.656c12.166-7.861 27.296-7.454 38.787-0.196C367.298 706.712 396.59 711 426.5 711 595.223 711 732 574.223 732 405.5S595.223 100 426.5 100zM237 349c30.928 0 56 25.072 56 56s-25.072 56-56 56-56-25.072-56-56 25.072-56 56-56z m193 0c30.928 0 56 25.072 56 56s-25.072 56-56 56-56-25.072-56-56 25.072-56 56-56z m193 0c30.928 0 56 25.072 56 56s-25.072 56-56 56-56-25.072-56-56 25.072-56 56-56z" /></svg>